<svg width="30" height="31" viewBox="0 0 30 31" fill="none" xmlns="http://www.w3.org/2000/svg">
<g clip-path="url(#clip0_1262_267)">
<path d="M15 1.49023C6.7125 1.49023 0 8.09995 0 16.2519C0 22.7753 4.2975 28.3072 10.2563 30.2575C11.0063 30.3965 11.2812 29.9396 11.2812 29.5477C11.2812 29.1972 11.2688 28.2684 11.2625 27.0378C7.09 27.9279 6.21 25.0574 6.21 25.0574C5.5275 23.3536 4.54125 22.898 4.54125 22.898C3.1825 21.9829 4.64625 22.0016 4.64625 22.0016C6.1525 22.1043 6.94375 23.5226 6.94375 23.5226C8.28125 25.7797 10.455 25.1275 11.3125 24.7507C11.4475 23.7955 11.8338 23.1458 12.2625 22.7765C8.93125 22.4072 5.43 21.1379 5.43 15.4821C5.43 13.8709 6.01125 12.554 6.97375 11.5212C6.805 11.1482 6.29875 9.64723 7.105 7.61424C7.105 7.61424 8.36125 7.21866 11.23 9.12772C12.43 8.79973 13.705 8.63699 14.98 8.62948C16.255 8.63699 17.53 8.79973 18.73 9.12772C21.58 7.21866 22.8362 7.61424 22.8362 7.61424C23.6425 9.64723 23.1362 11.1482 22.9862 11.5212C23.9425 12.554 24.5238 13.8709 24.5238 15.4821C24.5238 21.1529 21.0175 22.401 17.68 22.764C18.205 23.2072 18.6925 24.1123 18.6925 25.4955C18.6925 27.4709 18.6737 29.0583 18.6737 29.5377C18.6737 29.9245 18.9363 30.3865 19.705 30.2388C25.7062 28.3009 30 22.7653 30 16.2519C30 8.09995 23.2838 1.49023 15 1.49023Z" fill="#31B404"/>
</g>
<defs>
<clipPath id="clip0_1262_267">
<rect width="30" height="30.0442" fill="white" transform="translate(0 0.865234)"/>
</clipPath>
</defs>
</svg>
