<svg id="abf0a892-db11-42c8-a69e-5686775713ba" data-name="Livello 1" xmlns="http://www.w3.org/2000/svg" width="151" height="133.235" viewBox="269.43603515625 144.5072021484375 1223.6158447265625 539.9137573242188"><defs><style>
  .fb162d96-c87c-4fb7-9998-3f71599fcdc4 {
  fill: #fff;
  }
</style></defs><g><path class="fb162d96-c87c-4fb7-9998-3f71599fcdc4" d="M690.443 539.861c0.417 7.106 -1.075 12.435 -4.566 16.308 -4.69 5.232 -12.968 7.994 -26.043 8.651 -9.433 0.48 -20.358 -4.885 -23.378 -11.476 -1.776 -4.006 -0.684 -8.181 3.393 -12.435 3.304 -3.464 11.165 -7.417 15.988 -5.72 1.093 0.382 3.686 3.606 3.553 5.489 0 0.204 0 0.542 -1.226 0.737a2.611 2.611 0 0 0 0.888 5.143c4.654 -0.799 5.427 -4.068 5.543 -5.436 0.355 -4.201 -3.633 -9.673 -6.99 -10.854 -7.195 -2.523 -17.081 2.46 -21.46 7.035 -5.534 5.782 -7.106 12.249 -4.361 18.209 4.441 9.637 18.156 15.029 28.379 14.505a76.744 76.744 0 0 0 12.435 -1.546c0.32 1.279 6.537 25.848 7.479 29.587 -21.708 8.58 -44.749 3.979 -62.541 -1.093 -12.64 -3.597 -21.833 -21.904 -22.801 -28.592 -2.274 -15.624 -0.044 -25.404 9.184 -40.237 10.606 -17.063 21.664 -23.094 43.799 -23.982 19.426 -0.693 41.338 12.728 42.724 35.707"/><path class="fb162d96-c87c-4fb7-9998-3f71599fcdc4" d="M1111.102 216.223c21.975 1.057 35.05 24.204 35.378 43.746 10.339 -7.212 12.435 -20.163 24.409 -26.647 12.275 -6.644 28.814 -9.247 42.316 -13.022 10.552 -2.958 21.566 -4.104 32.296 -6.218 -17.614 27.535 -37.173 76.202 -73.528 83.423 -8.563 1.705 -16.361 1.315 -22.108 -4.743 -2.096 -2.221 -2.789 -4.566 -5.507 -6.262 -15.988 11.432 5.987 43.799 15.464 53.196 -4.308 5.01 -11.103 3.198 -9.291 4.93 -1.084 -9.886 -7.363 -18.529 -13.066 -26.336 -2.78 -3.793 -4.255 -7.612 -5.88 -11.849s1.572 -13.217 1.226 -17.498c-3.482 2.15 -12.435 10.472 -15.66 13.714a62.354 62.354 0 0 1 -21.762 13.981c-11.956 4.725 -36.329 12.133 -48.64 6.839 1.892 -13.244 8.296 -25.208 13.226 -37.475 2.922 -7.257 5.161 -15.731 12.684 -19.248 14.834 -6.91 36.959 1.51 50.47 5.942 -1.359 -10.117 -13.43 -17.063 -17.232 -26.265 -1.776 -4.335 -4.13 -10.09 -3.313 -14.905 1.03 -6.013 6.306 -8.794 8.083 -13.848Z"/><path class="fb162d96-c87c-4fb7-9998-3f71599fcdc4" d="M777.49 197.925c-9.682 -5.889 -32.501 -7.994 -44.634 -9.495 -18.866 -2.292 -33.282 -2.007 -51.997 2.123 -17.107 3.775 -26.86 16.042 -37.164 29.614 -8.172 -9.833 -13.546 -15.375 -16.672 -28.788 -2.745 -11.778 -2.931 -12.435 -15.713 -15.58a134.124 134.124 0 0 0 -23.68 -3.402c2.061 14.851 11.663 24.613 18.431 28.175 12.595 6.626 14.691 11.982 21.913 23.094 -22.206 -0.808 -40.175 -11.547 -62.043 -13.101 -36.871 -2.665 -89.712 6.688 -118.944 29.765 9.531 11.778 36.355 16.876 50.345 19.683 11.236 2.256 22.082 5.196 33.522 6.449 18.919 2.061 38.256 4.983 56.705 2.514 12.897 -1.723 21.895 -1.448 32.429 -8.261 10.908 -7.053 12.027 -3.784 25.759 -1.386 -3.739 7.292 4.326 14.718 3.775 23.21 -0.746 11.236 -2.354 22.161 -0.098 33.211 15.02 3.677 36.302 -9.566 50.514 -14.212 9.717 -3.18 20.429 -6.502 30.493 -6.635 -1.546 -10.339 -20.261 -26.976 -30.04 -30.387 -8.607 -3.011 -19.541 -1.661 -26.647 -7.674 25.013 -3.713 61.013 -5.454 80.066 -23.476C764.771 222.947 772.854 209.908 780.27 197.33"/><path class="fb162d96-c87c-4fb7-9998-3f71599fcdc4" d="M935.88 264.49c21.469 -15.02 45.478 -50.168 37.759 -77.365 -10.019 -35.298 -38.07 -44.181 -70.357 -42.404 -26.505 1.466 -53.294 5.765 -71.53 27.082 -20.119 23.538 -6.102 61.173 10.437 83.992 15.189 20.971 31.976 18.653 53.747 14.576 11.298 -2.132 29.605 1.776 37.075 -5.463"/><path class="fb162d96-c87c-4fb7-9998-3f71599fcdc4" d="M758.615 482.463c-21.895 15.251 -22.206 59.068 -14.301 82.037 7.106 20.634 39.224 97.146 50.105 49.484 5.329 -23.316 -5.454 -64.379 -12.862 -86.425 -5.543 -16.459 -21.584 -31.017 -25.181 -49.564"/><g><path class="fb162d96-c87c-4fb7-9998-3f71599fcdc4" d="M430.625 447.289 426.353 507.085H269.437v-10.144q3.349 -0.284 9.717 -0.995t8.882 -1.839a12.116 12.116 0 0 0 6.084 -5.392 19.31 19.31 0 0 0 1.883 -9.069V335.531a21.229 21.229 0 0 0 -1.608 -8.509q-1.608 -3.695 -6.36 -5.951a47.965 47.965 0 0 0 -9.024 -3.34 52.051 52.051 0 0 0 -9.575 -1.919v-10.135H354.406v10.135a68.039 68.039 0 0 0 -10.348 1.421 76.388 76.388 0 0 0 -9.193 2.274 10.606 10.606 0 0 0 -6.635 5.809 21.851 21.851 0 0 0 -1.776 8.794v135.127a87.935 87.935 0 0 0 0.888 14.532 12.95 12.95 0 0 0 4.308 7.994q3.251 2.558 9.691 3.34a160.771 160.771 0 0 0 18.04 0.773q5.223 0 10.881 -0.275A93.265 93.265 0 0 0 381.053 494.481a55.959 55.959 0 0 0 9.122 -2.327 14.567 14.567 0 0 0 6.155 -3.748q5.791 -6.484 13.501 -19.71t10.659 -21.406Z"/><path class="fb162d96-c87c-4fb7-9998-3f71599fcdc4" d="M508.124 507.085h-67.835v-9.442c2.176 -0.187 4.441 -0.382 6.759 -0.56a25.936 25.936 0 0 0 6.049 -1.137 10.215 10.215 0 0 0 5.898 -4.441 15.899 15.899 0 0 0 1.927 -8.278V397.041a16.965 16.965 0 0 0 -2.052 -8.278 18.244 18.244 0 0 0 -5.711 -6.298 25.936 25.936 0 0 0 -7.754 -2.905 57.735 57.735 0 0 0 -9.282 -1.501V368.618l49.413 -3.153 1.981 1.99v114.023a16.104 16.104 0 0 0 1.91 8.225 11.352 11.352 0 0 0 6.004 4.823 48.853 48.853 0 0 0 6.076 2.061 38.194 38.194 0 0 0 6.644 1.057ZM490.306 310.269a20.802 20.802 0 0 1 -5.329 14.212 16.814 16.814 0 0 1 -13.146 6.058 16.592 16.592 0 0 1 -12.569 -5.774 18.866 18.866 0 0 1 -5.329 -13.173 19.657 19.657 0 0 1 5.329 -13.679q5.329 -5.836 12.569 -5.836a17.498 17.498 0 0 1 13.324 5.48 18.031 18.031 0 0 1 5.152 12.711"/><path class="fb162d96-c87c-4fb7-9998-3f71599fcdc4" d="M626.401 304.15a17.054 17.054 0 0 1 -3.411 10.774q-3.411 4.379 -10.375 4.388a15.811 15.811 0 0 1 -7.754 -1.839 24.249 24.249 0 0 1 -6.218 -4.965 45.566 45.566 0 0 1 -5.267 -7.106c-1.608 -2.665 -2.976 -4.77 -4.113 -6.378q-9.531 0.426 -14.718 13.27T569.359 353.225v14.336h36.062v13.634h-36.018v100.539a15.189 15.189 0 0 0 1.927 8.101 11.636 11.636 0 0 0 6.049 4.681 43.524 43.524 0 0 0 9.122 2.061q5.702 0.782 9.833 1.066v9.442h-74.132v-9.442c2.176 -0.187 4.441 -0.382 6.759 -0.568a25.936 25.936 0 0 0 6.049 -1.137 10.197 10.197 0 0 0 5.898 -4.441 15.988 15.988 0 0 0 1.927 -8.314V381.204H515.176v-13.634h27.624v-8.945q0 -31.905 16.574 -51.695t41.507 -19.79q12.666 0 19.079 4.965t6.44 12.044"/><path class="fb162d96-c87c-4fb7-9998-3f71599fcdc4" d="M732.012 474.362a71.681 71.681 0 0 1 -23.663 26.647q-14.816 9.913 -34.055 9.922 -16.965 0 -29.711 -5.969A58.357 58.357 0 0 1 623.541 488.743a68.838 68.838 0 0 1 -12.329 -23.894 100.726 100.726 0 0 1 -4.059 -28.868 84.915 84.915 0 0 1 4.343 -26.807A75.5 75.5 0 0 1 624.27 385.494a61.555 61.555 0 0 1 20.145 -16.281 58.091 58.091 0 0 1 26.993 -6.218q15.375 0 26.345 4.832a46.899 46.899 0 0 1 17.765 13.199 52.939 52.939 0 0 1 9.771 18.751 82.162 82.162 0 0 1 3.207 23.432V432.571H635.506a110.763 110.763 0 0 0 2.665 25.173 60.045 60.045 0 0 0 8.358 19.879 39.615 39.615 0 0 0 14.567 13.093q9.007 4.796 21.433 4.796 12.711 0 21.931 -5.925t17.765 -21.318Zm-31.825 -53.649a116.359 116.359 0 0 0 -1.35 -16.983 51.518 51.518 0 0 0 -4.326 -15.1 28.823 28.823 0 0 0 -8.936 -10.659q-5.676 -4.104 -14.611 -4.113 -14.896 0 -24.755 12.435t-10.659 34.464Z"/><path class="fb162d96-c87c-4fb7-9998-3f71599fcdc4" d="M1003.946 315.812a32.421 32.421 0 0 0 -8.243 1.634 40.148 40.148 0 0 0 -8.669 3.899 29.578 29.578 0 0 0 -7.994 7.159 37.217 37.217 0 0 0 -5.329 11.281q-10.099 32.758 -23.458 76.504t-28.85 93.265h-13.137l-50.931 -155.175 -52.859 155.175h-12.595q-14.079 -49.626 -29.143 -103.035T742.565 334.962a24.871 24.871 0 0 0 -3.766 -7.808 27.331 27.331 0 0 0 -15.1 -9.851 51.962 51.962 0 0 0 -8.598 -1.492v-10.135h82.224v10.135A127.906 127.906 0 0 0 778.982 317.988q-7.612 1.563 -7.603 5.249a22.206 22.206 0 0 0 0.426 3.757c0.284 1.563 0.524 2.816 0.711 3.757q3.26 12.489 11.547 41.294T808.738 458.329l50.292 -149.828h13.901l50.754 152.839q10.259 -35.201 17.685 -61.546t12.258 -45.078q3.429 -13.199 4.272 -18.093a49.741 49.741 0 0 0 0.888 -8.305c0 -3.207 -2.203 -5.907 -6.608 -8.074s-11.547 -3.642 -21.38 -4.441v-10.126h73.182Z"/><path class="fb162d96-c87c-4fb7-9998-3f71599fcdc4" d="M1116.76 504.518q-6.68 2.398 -11.698 3.873a40.859 40.859 0 0 1 -11.414 1.474q-11.067 0 -17.658 -5.187t-8.438 -15.1h-0.888a68.838 68.838 0 0 1 -19.657 15.615q-10.499 5.392 -25.288 5.392 -15.633 0 -25.706 -9.646T985.941 475.659a43.168 43.168 0 0 1 2.256 -14.478 34.464 34.464 0 0 1 6.777 -11.547 33.664 33.664 0 0 1 9.309 -7.594 82.073 82.073 0 0 1 10.863 -5.329q6.342 -2.398 25.759 -8.945t26.167 -10.224v-13.892a59.512 59.512 0 0 0 -0.773 -7.026 29.401 29.401 0 0 0 -3.304 -9.833 28.024 28.024 0 0 0 -7.994 -9.06q-5.125 -3.873 -14.549 -3.873a32.776 32.776 0 0 0 -12.027 2.176c-3.704 1.448 -6.315 2.967 -7.808 4.548a37.306 37.306 0 0 0 1.35 8.269 42.458 42.458 0 0 1 1.35 10.09q0 4.903 -4.486 8.971t-12.435 4.059q-7.106 0 -10.481 -5.036a19.923 19.923 0 0 1 1.252 -23.769 46.188 46.188 0 0 1 11.947 -10.659 64.93 64.93 0 0 1 15.402 -6.733 60.134 60.134 0 0 1 17.667 -2.771 114.849 114.849 0 0 1 20.705 1.634 37.892 37.892 0 0 1 16.042 7.044 32.776 32.776 0 0 1 10.952 14.292q3.748 9.033 3.748 23.236 0 20.341 -0.346 36.053t-0.355 34.339q0 5.543 1.901 8.811a15.402 15.402 0 0 0 5.836 5.551c1.412 0.888 3.633 1.323 6.68 1.421s6.218 0.142 9.362 0.142Zm-49.368 -75.056q-11.991 3.553 -21.033 6.982a84.915 84.915 0 0 0 -16.805 8.563 38.549 38.549 0 0 0 -11.156 11.485 29.401 29.401 0 0 0 -4.086 15.757q0 11.831 6.12 17.392t15.562 5.56a31.683 31.683 0 0 0 17.596 -4.912 51.429 51.429 0 0 0 12.817 -11.627Z"/><path class="fb162d96-c87c-4fb7-9998-3f71599fcdc4" d="M1205.913 501.249q-9.184 3.784 -17.374 6.386t-20.065 2.594q-17.525 0 -24.657 -8.882t-7.106 -25.11v-95.041h-25.181v-13.626h25.759v-43.71h25.759v43.71h39.793v13.634h-39.509v78.689a142.118 142.118 0 0 0 0.631 14.771 27.713 27.713 0 0 0 3.038 10.357 14.567 14.567 0 0 0 6.777 6.28q4.53 2.158 12.151 2.15 3.553 0 10.383 -0.693c4.566 -0.462 7.79 -1.039 9.673 -1.776Z"/><path class="fb162d96-c87c-4fb7-9998-3f71599fcdc4" d="M1275.861 510.931q-30.529 0 -47.787 -20.198t-17.258 -54.182a81.007 81.007 0 0 1 4.637 -27.66 76.122 76.122 0 0 1 13.492 -23.396 63.562 63.562 0 0 1 48.853 -22.472q20.687 0 33.691 9.886t12.995 26.949a23.298 23.298 0 0 1 -3.411 12.586q-3.393 5.48 -11.192 5.472 -8.349 0 -12.968 -4.246t-4.628 -9.522a53.294 53.294 0 0 1 1.697 -13.101 71.059 71.059 0 0 0 1.99 -9.851 12.684 12.684 0 0 0 -7.665 -5.871 38.994 38.994 0 0 0 -10.979 -1.492 30.644 30.644 0 0 0 -13.119 2.922q-6.218 2.922 -12.116 10.748 -5.329 7.106 -8.607 19.213t-3.304 28.885q0 26.478 11.769 43.195t30.893 16.725q13.83 0 23.183 -6.733t17.338 -20.19l9.131 5.96a73.546 73.546 0 0 1 -24.817 26.549q-15.411 9.815 -31.817 9.824"/><path class="fb162d96-c87c-4fb7-9998-3f71599fcdc4" d="M1490.139 507.085h-68.883v-9.442c2.185 -0.187 4.601 -0.382 7.266 -0.568a26.825 26.825 0 0 0 6.564 -1.146 10.215 10.215 0 0 0 5.916 -4.441 15.926 15.926 0 0 0 1.927 -8.323v-72.187q0 -14.949 -7.026 -23.094t-17.107 -8.118a39.082 39.082 0 0 0 -13.705 2.354 51.518 51.518 0 0 0 -11.289 5.765 33.22 33.22 0 0 0 -7.381 7.106c-1.705 2.372 -3.038 4.361 -3.979 5.978v80.696a14.976 14.976 0 0 0 1.919 7.994 12.364 12.364 0 0 0 5.925 4.841 31.71 31.71 0 0 0 6.484 2.141 54.182 54.182 0 0 0 7.355 0.995v9.442h-68.883v-9.433c2.158 -0.187 4.441 -0.4 6.777 -0.64a32.598 32.598 0 0 0 5.933 -1.066 10.41 10.41 0 0 0 5.933 -4.441 15.517 15.517 0 0 0 1.981 -8.305V320.298a23.005 23.005 0 0 0 -2.194 -9.637 16.965 16.965 0 0 0 -5.72 -7.239q-2.54 -1.839 -8.971 -2.665t-10.383 -1.066v-9.398l51.855 -3.153 1.99 2.132V386.915h0.568q4.681 -4.69 8.509 -8.323a67.861 67.861 0 0 1 10.064 -7.603 53.205 53.205 0 0 1 12.693 -5.694 54.893 54.893 0 0 1 16.379 -2.274q18.706 0 28.788 11.876t10.064 34.179v72.924a15.722 15.722 0 0 0 1.776 8.039 11.725 11.725 0 0 0 5.942 4.761 47.076 47.076 0 0 0 5.942 1.919 42.635 42.635 0 0 0 6.955 0.888Z"/></g><g><path class="fb162d96-c87c-4fb7-9998-3f71599fcdc4" d="M1227.586 628.231h-46.188v36.009h51.642v18.36h-73.999v-122.576h71.272v18.36h-48.915v31.639h46.188Z"/><path class="fb162d96-c87c-4fb7-9998-3f71599fcdc4" d="M1252.678 561.684a211.933 211.933 0 0 1 33.824 -2.549c17.631 0 29.632 2.913 37.821 9.824 6.724 5.64 10.543 14.212 10.543 24.542 0 15.819 -10.73 26.549 -22.206 30.733v0.551c8.731 3.269 14.007 11.814 17.099 23.636 3.819 15.269 7.106 29.454 9.637 34.179h-23.094c-1.776 -3.633 -4.725 -13.634 -8.181 -28.912 -3.455 -15.988 -9.282 -21.087 -22.01 -21.451h-11.272v50.363h-22.206Zm22.206 54.182h13.324c15.1 0 24.542 -7.994 24.542 -20.181 0 -13.457 -9.451 -19.639 -23.982 -19.639 -7.106 0 -11.636 0.551 -13.821 1.093Z"/><path class="fb162d96-c87c-4fb7-9998-3f71599fcdc4" d="M1378.541 560.05v122.576h-22.366v-122.576Z"/><path class="fb162d96-c87c-4fb7-9998-3f71599fcdc4" d="M1491.96 678.967c-5.276 2.727 -16.876 5.454 -31.639 5.454 -38.914 0 -62.55 -24.364 -62.55 -61.644 0 -40.361 27.997 -64.726 65.454 -64.726 14.736 0 25.279 3.091 29.827 5.454l-4.912 17.818a59.512 59.512 0 0 0 -23.982 -4.725c-24.871 0 -42.92 15.633 -42.92 45.096 0 26.905 15.828 44.181 42.733 44.181 9.096 0 18.546 -1.776 24.364 -4.548Z"/></g></g></svg>