<svg width="20" height="20" viewBox="0 0 20 20" fill="none" xmlns="http://www.w3.org/2000/svg">
<path d="M18.7999 13.5829L12.4083 2.98292C12.1498 2.5786 11.7937 2.24585 11.3728 2.01536C10.9519 1.78488 10.4798 1.66406 9.99992 1.66406C9.52005 1.66406 9.04791 1.78488 8.62702 2.01536C8.20613 2.24585 7.85004 2.5786 7.59159 2.98292L1.19992 13.5829C0.974132 13.9593 0.851411 14.3885 0.844097 14.8273C0.836783 15.2662 0.945133 15.6992 1.15825 16.0829C1.40465 16.5148 1.7613 16.8735 2.19176 17.1224C2.62221 17.3713 3.11103 17.5015 3.60825 17.4996H16.3916C16.8855 17.5049 17.3722 17.3797 17.8023 17.1369C18.2325 16.894 18.591 16.5419 18.8416 16.1162C19.061 15.7286 19.1728 15.2893 19.1655 14.8439C19.1581 14.3985 19.0319 13.9632 18.7999 13.5829ZM17.3833 15.2912C17.2831 15.4634 17.1378 15.6049 16.963 15.7004C16.7882 15.7958 16.5906 15.8417 16.3916 15.8329H3.60825C3.40927 15.8417 3.21168 15.7958 3.03689 15.7004C2.86209 15.6049 2.71674 15.4634 2.61659 15.2912C2.54345 15.1646 2.50494 15.0209 2.50494 14.8746C2.50494 14.7283 2.54345 14.5846 2.61659 14.4579L9.01659 3.84958C9.13159 3.69767 9.28023 3.57447 9.45084 3.48964C9.62145 3.40482 9.80939 3.36067 9.99992 3.36067C10.1905 3.36067 10.3784 3.40482 10.549 3.48964C10.7196 3.57447 10.8683 3.69767 10.9833 3.84958L17.3749 14.4496C17.4509 14.5765 17.4917 14.7214 17.4932 14.8693C17.4946 15.0172 17.4567 15.1628 17.3833 15.2912Z" fill="var(--warning-color)"/>
<path d="M9.99984 14.1667C10.4601 14.1667 10.8332 13.7936 10.8332 13.3333C10.8332 12.8731 10.4601 12.5 9.99984 12.5C9.5396 12.5 9.1665 12.8731 9.1665 13.3333C9.1665 13.7936 9.5396 14.1667 9.99984 14.1667Z" fill="var(--warning-color)"/>
<path d="M9.99984 6.66602C9.77882 6.66602 9.56686 6.75381 9.41058 6.91009C9.2543 7.06637 9.1665 7.27834 9.1665 7.49935V10.8327C9.1665 11.0537 9.2543 11.2657 9.41058 11.4219C9.56686 11.5782 9.77882 11.666 9.99984 11.666C10.2209 11.666 10.4328 11.5782 10.5891 11.4219C10.7454 11.2657 10.8332 11.0537 10.8332 10.8327V7.49935C10.8332 7.27834 10.7454 7.06637 10.5891 6.91009C10.4328 6.75381 10.2209 6.66602 9.99984 6.66602Z" fill="var(--warning-color)"/>
</svg>
