<svg xmlns="http://www.w3.org/2000/svg" version="1.1" xmlns:xlink="http://www.w3.org/1999/xlink" width="512" height="512" x="0" y="0" viewBox="0 0 32 32" style="enable-background:new 0 0 512 512" xml:space="preserve" class=""><g><path d="M2.888 29.09a.75.75 0 0 0 .104 1.461 18.594 18.594 0 0 0 14.854-4.337 18.59 18.59 0 0 0 6.426-13.466H28.9a.75.75 0 0 0 .53-1.28L19.432 1.47a.773.773 0 0 0-1.061 0l-9.999 9.999a.75.75 0 0 0 .53 1.28h4.619v2.111c0 6.529-4.373 12.381-10.633 14.23z" fill="#000000" opacity="1" data-original="#000000"></path></g></svg>