<svg width="20" height="20" viewBox="-2 -2 16 17" fill="none" xmlns="http://www.w3.org/2000/svg">
    <path d="M5 11C4.9595 11 4.91844 11 4.87737 10.9965C4.28957 10.9495 3.74154 10.6722 3.34588 10.2214C2.95022 9.77071 2.73698 9.18086 2.74996 8.57305V6.35956H0.984801C0.789747 6.35953 0.599093 6.29977 0.437009 6.18788C0.274925 6.07598 0.148708 5.91698 0.0743594 5.73103C1.0662e-05 5.54507 -0.0191223 5.34054 0.0193859 5.14336C0.0578941 4.94618 0.152309 4.76523 0.290663 4.62345L4.66812 0.141371C4.75626 0.0508338 4.87559 0 5 0C5.12441 0 5.24374 0.0508338 5.33188 0.141371L9.70934 4.62345C9.84766 4.7652 9.94206 4.9461 9.98059 5.14322C10.0191 5.34035 10 5.54483 9.92575 5.73076C9.85147 5.91669 9.72534 6.0757 9.56334 6.18764C9.40134 6.29958 9.21077 6.35941 9.01576 6.35956H7.25004V8.61133C7.25958 9.15412 7.09021 9.68419 6.76966 10.1148C6.55921 10.3912 6.29048 10.6146 5.98387 10.768C5.67725 10.9213 5.34079 11.0007 5 11Z" stroke="#888888"/>
</svg>
