<svg width="15" height="14" viewBox="0 0 15 14" fill="none" xmlns="http://www.w3.org/2000/svg">
    <path d="M12.9378 0H2.06222C0.925148 0 0 0.924961 0 2.06222V8.71786C0 9.85256 0.921093 10.776 2.05491 10.7801V13.8003L6.39532 10.78H12.9378C14.0748 10.78 15 9.85492 15 8.71783V2.06222C15 0.924961 14.0748 0 12.9378 0ZM14.1211 8.71781C14.1211 9.37024 13.5903 9.90117 12.9378 9.90117H6.11957L2.93381 12.118V9.90114H2.06222C1.40972 9.90114 0.878906 9.37024 0.878906 8.71783V2.06222C0.878906 1.40965 1.40972 0.878906 2.06222 0.878906H12.9378C13.5903 0.878906 14.1211 1.40965 14.1211 2.06222V8.71781Z" fill="#888888"/>
    <path d="M4.01465 3.10547H10.9853V3.98437H4.01465V3.10547ZM4.01465 4.98047H10.9853V5.85937H4.01465V4.98047ZM4.01465 6.85547H10.9853V7.73437H4.01465V6.85547Z" fill="#888888"/>
</svg>
