<svg width="14" height="14" viewBox="0 0 14 14" fill="none" xmlns="http://www.w3.org/2000/svg">
    <path d="M7 0C5.61553 0 4.26216 0.410543 3.11101 1.17971C1.95987 1.94888 1.06266 3.04213 0.532846 4.32122C0.00303296 5.6003 -0.13559 7.00776 0.134506 8.36563C0.404603 9.7235 1.07129 10.9708 2.05026 11.9497C3.02922 12.9287 4.2765 13.5954 5.63437 13.8655C6.99224 14.1356 8.3997 13.997 9.67879 13.4672C10.9579 12.9373 12.0511 12.0401 12.8203 10.889C13.5895 9.73784 14 8.38447 14 7C13.9982 5.14402 13.2602 3.36457 11.9478 2.0522C10.6354 0.73983 8.85598 0.00176507 7 0ZM3.33334 8C3.13555 8 2.94221 7.94135 2.77777 7.83147C2.61332 7.72159 2.48514 7.56541 2.40946 7.38268C2.33377 7.19996 2.31397 6.99889 2.35255 6.80491C2.39114 6.61093 2.48638 6.43274 2.62623 6.29289C2.76608 6.15304 2.94426 6.0578 3.13825 6.01921C3.33223 5.98063 3.53329 6.00043 3.71602 6.07612C3.89875 6.15181 4.05492 6.27998 4.16481 6.44443C4.27469 6.60888 4.33334 6.80222 4.33334 7C4.33334 7.26521 4.22798 7.51957 4.04044 7.70711C3.85291 7.89464 3.59855 8 3.33334 8ZM7 8C6.80222 8 6.60888 7.94135 6.44443 7.83147C6.27998 7.72159 6.15181 7.56541 6.07612 7.38268C6.00043 7.19996 5.98063 6.99889 6.01922 6.80491C6.0578 6.61093 6.15304 6.43274 6.2929 6.29289C6.43275 6.15304 6.61093 6.0578 6.80491 6.01921C6.99889 5.98063 7.19996 6.00043 7.38269 6.07612C7.56541 6.15181 7.72159 6.27998 7.83147 6.44443C7.94135 6.60888 8 6.80222 8 7C8 7.26521 7.89465 7.51957 7.70711 7.70711C7.51957 7.89464 7.26522 8 7 8ZM10.6667 8C10.4689 8 10.2755 7.94135 10.1111 7.83147C9.94665 7.72159 9.81848 7.56541 9.74279 7.38268C9.6671 7.19996 9.6473 6.99889 9.68588 6.80491C9.72447 6.61093 9.81971 6.43274 9.95956 6.29289C10.0994 6.15304 10.2776 6.0578 10.4716 6.01921C10.6656 5.98063 10.8666 6.00043 11.0494 6.07612C11.2321 6.15181 11.3883 6.27998 11.4981 6.44443C11.608 6.60888 11.6667 6.80222 11.6667 7C11.6667 7.26521 11.5613 7.51957 11.3738 7.70711C11.1862 7.89464 10.9319 8 10.6667 8Z" fill="#3CB371"/>
</svg>
