<svg width="15" height="11" viewBox="0 0 15 11" fill="none" xmlns="http://www.w3.org/2000/svg">
<path d="M11.6392 2.58179L9.8885 4.33297C10.1032 4.74799 10.2224 5.22025 10.2224 5.71637C10.2224 7.40506 8.84333 8.78369 7.15463 8.78369C6.65852 8.78369 6.18625 8.66443 5.77124 8.44977L4.49756 9.72392C5.34191 10.0054 6.23873 10.158 7.15463 10.158C9.90234 10.158 12.4783 8.80802 14.0478 6.55165C14.2247 6.29883 14.3106 6.00784 14.3106 5.71685C14.3106 5.42586 14.2247 5.13487 14.0482 4.88204C13.4074 3.96178 12.5882 3.17922 11.6392 2.58179Z" fill="#3CB371"/>
<path d="M7.15483 7.83023C8.31879 7.83023 9.26809 6.88093 9.26809 5.71697C9.26809 5.488 9.22992 5.26856 9.16314 5.05867L6.49653 7.72528C6.70642 7.79206 6.92586 7.83023 7.15483 7.83023ZM12.0544 0.139505C12.0103 0.0952828 11.9579 0.0601982 11.9002 0.03626C11.8425 0.0123218 11.7806 0 11.7181 0C11.6557 0 11.5938 0.0123218 11.5361 0.03626C11.4784 0.0601982 11.426 0.0952828 11.3818 0.139505L9.81238 1.70894C8.96803 1.42749 8.07073 1.27484 7.15483 1.27484C4.40712 1.27484 1.83067 2.62485 0.261233 4.88169C0.0911442 5.12685 0 5.41811 0 5.71649C0 6.01488 0.0911442 6.30614 0.261233 6.5513C0.914768 7.48629 1.73526 8.26385 2.67025 8.8506L1.57784 9.94348C1.51127 10.0101 1.46601 10.095 1.44778 10.1874C1.42956 10.2798 1.43921 10.3755 1.47551 10.4624C1.5118 10.5493 1.57311 10.6235 1.65163 10.6755C1.73016 10.7275 1.82236 10.755 1.91654 10.7544C2.04056 10.7544 2.15982 10.7115 2.25523 10.6161L12.0544 0.816892C12.2405 0.630849 12.2405 0.325548 12.0544 0.139505ZM7.81314 3.70771C7.60324 3.64093 7.38381 3.60324 7.15483 3.60324C5.99087 3.60324 5.04158 4.55253 5.04158 5.71649C5.04158 5.94547 5.07974 6.1649 5.14652 6.3748L4.42143 7.09989C4.20677 6.68487 4.08751 6.21261 4.08751 5.71649C4.08751 4.0278 5.46614 2.64917 7.15483 2.64917C7.65095 2.64917 8.12321 2.76843 8.53823 2.9831L7.81314 3.70771Z" fill="#3CB371"/>
</svg>
