<svg width="30" height="30" viewBox="0 0 30 30" fill="none" xmlns="http://www.w3.org/2000/svg">
    <path d="M30 28.2468H29.0057V9.0743H30V7.321H23.2832V10.8078H26.0676V12.561H23.2832V14.3145H26.0676V16.0678H23.2832V17.821H26.0676V19.5742H23.2832V21.3277H26.0676V23.0809H23.2832V28.247H21.584V4.01139L15 0L8.416 4.01133V28.2468H6.71678V23.0807H3.95186V21.3277H6.71678V19.5742H3.95186V17.821H6.71678V16.0675H3.95186V14.3145H6.71678V12.561H3.95186V10.8077H6.71678V7.32094H0V9.07418H1.01367V28.2467H0V30H30V28.2468ZM17.4548 7.06787H19.208V8.82111H17.4548V7.06787ZM17.4548 10.7494H19.208V12.5027H17.4548V10.7494ZM17.4548 14.4312H19.208V16.1845H17.4548V14.4312ZM17.4548 18.1128H19.208V19.866H17.4548V18.1128ZM17.4548 21.7944H19.208V23.5476H17.4548V21.7944ZM14.1234 7.06787H15.8766V8.82111H14.1234V7.06787ZM14.1234 10.7494H15.8766V12.5027H14.1234V10.7494ZM14.1234 14.4312H15.8766V16.1845H14.1234V14.4312ZM14.1234 18.1128H15.8766V19.866H14.1234V18.1128ZM14.1234 21.7944H15.8766V23.5476H14.1234V21.7944ZM10.7338 7.06787H12.4873V8.82111H10.7338V7.06787ZM10.7338 10.7494H12.4873V12.5027H10.7338V10.7494ZM10.7338 14.4312H12.4873V16.1845H10.7338V14.4312ZM10.7338 18.1128H12.4873V19.866H10.7338V18.1128ZM10.7338 21.7944H12.4873V23.5476H10.7338V21.7944ZM14.1234 25.1255H15.8766V28.2468H14.1234V25.1255Z" fill="#3CB371"/>
</svg>
