<svg width="29" height="33" viewBox="0 0 29 33" fill="none" xmlns="http://www.w3.org/2000/svg">
    <path d="M14.2807 15.8961C16.581 15.8961 18.5728 15.1129 20.2004 13.5675C21.8279 12.0224 22.6529 10.1319 22.6529 7.94785C22.6529 5.76445 21.8279 3.87373 20.2001 2.32809C18.5723 0.783228 16.5807 0 14.2807 0C11.9801 0 9.98874 0.783228 8.36129 2.32835C6.73384 3.87347 5.90851 5.76426 5.90851 7.94785C5.90851 10.1319 6.73377 12.0227 8.36156 13.5678C9.98935 15.1127 11.981 15.8961 14.2807 15.8961ZM28.9297 25.3752C28.8828 24.7322 28.7878 24.0307 28.6481 23.2901C28.507 22.5438 28.3254 21.8384 28.1079 21.1936C27.8833 20.5271 27.5778 19.8691 27.2002 19.2383C26.8082 18.5838 26.3478 18.0137 25.8312 17.5447C25.291 17.054 24.6296 16.6595 23.8648 16.3717C23.1026 16.0855 22.258 15.9405 21.3545 15.9405C20.9996 15.9405 20.6565 16.0787 19.9938 16.4883C19.5227 16.7796 19.0502 17.0687 18.5763 17.3559C18.121 17.6313 17.5041 17.8894 16.7422 18.123C15.9989 18.3514 15.2441 18.4672 14.4992 18.4672C13.7543 18.4672 12.9998 18.3514 12.2556 18.123C11.4946 17.8896 10.8778 17.6316 10.4229 17.3561C9.89539 17.0361 9.41813 16.7441 9.00414 16.488C8.34221 16.0784 7.99876 15.9402 7.64397 15.9402C6.74015 15.9402 5.89581 16.0854 5.13389 16.372C4.36958 16.6593 3.70793 17.0538 3.16719 17.545C2.65089 18.0142 2.19026 18.5839 1.79881 19.2383C1.42148 19.869 1.11598 20.5269 0.891057 21.1938C0.673811 21.8386 0.492206 22.5438 0.351131 23.2901C0.211347 24.0297 0.116437 24.7314 0.0694574 25.376C0.0227236 26.0246 -0.000440478 26.6745 6.34184e-06 27.3246C6.34184e-06 29.0472 0.576796 30.4417 1.71422 31.4702C2.83759 32.4852 4.32396 33 6.13152 33H22.8685C24.676 33 26.1619 32.4854 27.2855 31.4703C28.4232 30.4425 29 29.0478 29 27.3244C28.9997 26.6595 28.9762 26.0036 28.9297 25.3752Z" fill="#3CB371"/>
</svg>
