<svg width="30" height="32" viewBox="0 0 30 32" fill="none" xmlns="http://www.w3.org/2000/svg">
<g clip-path="url(#clip0_1262_281)">
<path d="M26.882 20.978C26.6911 20.8838 26.4685 20.7896 26.2776 20.6954H26.4366C26.4366 20.6954 25.1005 20.1301 25.005 15.9221C24.8778 11.7454 26.2776 11.0232 26.2776 11.0232C27.3274 10.4893 28.2182 9.67282 28.7908 8.57371C30.3179 5.716 29.2362 2.19883 26.3412 0.660067C23.1917 -0.81589 19.6286 0.251823 18.1015 3.10953C17.4653 4.27145 17.3062 5.55899 17.4971 6.78372L17.4335 6.68951C17.4335 6.68951 17.7834 8.19687 14.1567 10.4265C10.5618 12.6561 8.90748 11.5256 8.90748 11.5256L9.00292 11.6826C8.90748 11.6198 8.81204 11.557 8.68478 11.4942C5.82158 9.95545 2.22667 11.0546 0.699629 13.9123C-0.827412 16.77 0.254242 20.2872 3.14926 21.8259C5.31257 22.9564 7.82582 22.6424 9.63918 21.2293L9.60737 21.2921C9.60737 21.2921 10.9117 20.2243 14.6975 22.2342C17.688 23.8043 18.1334 25.3745 18.197 25.9398C18.1334 28.1066 19.2468 30.242 21.3147 31.3097C24.2097 32.8171 27.7728 31.7494 29.3317 28.8917C30.8587 26.034 29.7452 22.5168 26.882 20.978ZM20.2012 21.7631C19.724 21.9201 18.356 22.1085 15.4928 20.6012C12.3751 18.9368 11.8979 17.5551 11.8343 17.1468C11.8661 16.6444 11.8661 16.1419 11.7707 15.6395L11.8025 15.6709C11.8025 15.6709 11.548 14.3205 15.1111 12.1537C18.2924 10.2067 19.7558 10.5835 20.0103 10.6777C20.1694 10.8033 20.3603 10.8976 20.5512 10.9918C20.9011 11.1802 21.2829 11.3372 21.6646 11.4314C22.11 11.8397 22.9054 13.0016 23.0008 16.1105C23.0962 19.2194 22.1736 20.4128 21.6646 20.821C21.1238 21.0722 20.6148 21.3863 20.2012 21.7631Z" fill="#3CB371"/>
<path d="M19.7872 2.54433C18.0693 4.39712 18.0375 7.12921 19.6917 8.69938C18.8646 7.9143 18.8964 6.28132 19.7236 4.74256C19.819 4.61695 20.1371 4.27151 20.5825 4.42853C20.6143 4.42853 20.6461 4.45993 20.678 4.45993C20.7734 4.49133 20.9007 4.49133 20.9961 4.49133C21.696 4.45993 22.205 3.89467 22.1732 3.2038C22.1732 2.88976 22.0459 2.63854 21.8232 2.41871C23.4139 1.3824 25.2273 1.25679 25.9908 1.94766H26.0226C24.3365 0.377495 21.5369 0.660125 19.7872 2.54433ZM2.48072 13.5355C0.762799 15.3883 0.730985 18.1204 2.38528 19.6905C1.55813 18.9055 1.58995 17.2725 2.41709 15.7337C2.51253 15.6081 2.83067 15.2627 3.27605 15.4197C3.30787 15.4197 3.33968 15.4511 3.37149 15.4511C3.46693 15.4825 3.59419 15.4825 3.68963 15.4825C4.38952 15.4511 4.89854 14.8858 4.86672 14.195C4.86672 13.8809 4.73947 13.6297 4.51678 13.4099C6.10744 12.3736 7.9208 12.248 8.68433 12.9388H8.71614C7.03003 11.4001 4.23045 11.6513 2.48072 13.5355ZM20.8052 22.8623C19.0873 24.7151 19.0555 27.4472 20.7098 29.0173C19.8826 28.2323 19.9144 26.5993 20.7416 25.0605C20.837 24.9349 21.1552 24.5895 21.6005 24.7465C21.6324 24.7465 21.6642 24.7779 21.696 24.7779C21.7914 24.8093 21.9187 24.8093 22.0141 24.8093C22.714 24.7779 23.223 24.2126 23.1912 23.5218C23.1912 23.2077 23.064 22.9565 22.8413 22.7367C24.4319 21.7004 26.2453 21.5747 27.0088 22.2656H27.0406C25.3545 20.6955 22.555 20.9781 20.8052 22.8623Z" fill="white"/>
</g>
<defs>
<clipPath id="clip0_1262_281">
<rect width="30" height="32" fill="white"/>
</clipPath>
</defs>
</svg>
