<svg width="16" height="12" viewBox="0 0 16 12" fill="none" xmlns="http://www.w3.org/2000/svg">
<path d="M7.24151 6.03343C7.21275 5.96931 7.16609 5.91485 7.10713 5.8766C7.04817 5.83836 6.97941 5.81796 6.90913 5.81785H5.10812C5.20265 4.73698 5.79202 2.07482 9.22576 0.701358C9.30429 0.670037 9.36946 0.612325 9.41004 0.538149C9.45063 0.463974 9.46409 0.377973 9.44812 0.294943C9.43219 0.211895 9.38779 0.137004 9.32258 0.0831682C9.25737 0.029332 9.17543 -7.91748e-05 9.09086 1.60081e-07C4.87014 1.60081e-07 2.44764 2.93422 2.2013 5.81785H0.363949C0.293641 5.81783 0.224831 5.83817 0.165845 5.87643C0.106858 5.91469 0.0602212 5.96923 0.0315761 6.03343C0.00290512 6.09765 -0.00651973 6.1688 0.00444446 6.23827C0.0154086 6.30773 0.0462909 6.37252 0.0933463 6.42478L3.36594 10.0613C3.40016 10.0991 3.44192 10.1293 3.48852 10.15C3.53513 10.1706 3.58554 10.1813 3.63652 10.1813C3.68751 10.1813 3.73792 10.1706 3.78453 10.15C3.83113 10.1293 3.87289 10.0991 3.90711 10.0613L7.1797 6.42482C7.22662 6.37248 7.25741 6.30769 7.26838 6.23827C7.27934 6.16884 7.27001 6.09768 7.24151 6.03343ZM15.9065 5.21106L12.6339 1.5749C12.5989 1.53852 12.5568 1.50957 12.5104 1.4898C12.4639 1.47003 12.4139 1.45984 12.3633 1.45984C12.3128 1.45984 12.2628 1.47003 12.2163 1.4898C12.1698 1.50957 12.1278 1.53852 12.0928 1.5749L8.82016 5.21102C8.7731 5.26328 8.74221 5.32807 8.73124 5.39754C8.72027 5.467 8.72969 5.53816 8.75835 5.60237C8.78699 5.66661 8.83364 5.72115 8.89266 5.7594C8.95169 5.79764 9.02054 5.81793 9.09086 5.81782H10.8919C10.7973 6.89886 10.2079 9.56129 6.77421 10.9349C6.69566 10.9661 6.63046 11.0238 6.58985 11.098C6.54924 11.1721 6.53575 11.2581 6.55171 11.3411C6.5677 11.4242 6.61214 11.499 6.67738 11.5528C6.74262 11.6066 6.82458 11.636 6.90913 11.6358C11.1297 11.6358 13.5522 8.70148 13.7987 5.81785H15.636C15.7063 5.8179 15.7751 5.79757 15.8341 5.75934C15.8931 5.7211 15.9398 5.66659 15.9684 5.60241C15.997 5.53818 16.0064 5.46704 15.9954 5.39758C15.9845 5.32813 15.9536 5.26335 15.9066 5.21106H15.9065Z" fill="#888888"/>
</svg>
