<svg width="157" height="112" viewBox="0 0 157 112" fill="none" xmlns="http://www.w3.org/2000/svg">
    <path d="M63.78 0L51.65 18.58L39.51 0H63.78Z" fill="#4D4D4D"/>
    <path d="M114.54 0L102.41 18.58L90.27 0H114.54Z" fill="#4D4D4D"/>
    <path d="M39.51 111.311L51.65 92.7207L63.78 111.311H39.51Z" fill="#4D4D4D"/>
    <path d="M90.27 111.311L102.41 92.7207L114.54 111.311H90.27Z" fill="#4D4D4D"/>
    <path d="M140.66 59.5501C144.96 58.7501 148.23 56.8401 150.46 53.8301C152.7 50.8201 153.81 47.1601 153.81 42.8701C153.81 39.3101 153.19 36.3501 151.96 33.9701C150.73 31.5901 149.06 29.7001 146.97 28.2901C144.88 26.8901 142.44 25.8801 139.66 25.2801C136.88 24.6801 133.94 24.3801 130.85 24.3801H107.29V43.2101C107.1 42.6601 106.9 42.1201 106.68 41.5801C105.05 37.6301 102.77 34.2601 99.84 31.4801C96.91 28.7001 93.45 26.5601 89.43 25.0701C85.42 23.5801 81.03 22.8301 76.27 22.8301C71.51 22.8301 67.13 23.5801 63.11 25.0701C59.1 26.5601 55.63 28.7001 52.7 31.4801C50.08 33.9701 47.98 36.9401 46.4 40.3801C46.17 37.9101 45.59 35.7701 44.66 33.9701C43.43 31.5901 41.76 29.7001 39.67 28.2901C37.58 26.8901 35.14 25.8801 32.36 25.2801C29.58 24.6801 26.64 24.3801 23.55 24.3801H0V85.2601H13.41V60.9201H20.03L32.76 85.2601H48.84L33.37 59.5501C37.67 58.7501 40.94 56.8401 43.17 53.8301C43.27 53.6901 43.36 53.5401 43.46 53.4001C43.44 53.8701 43.43 54.3401 43.43 54.8201C43.43 59.6901 44.25 64.1101 45.88 68.0601C47.51 72.0101 49.79 75.3801 52.72 78.1601C55.64 80.9401 59.11 83.0801 63.13 84.5701C67.14 86.0601 71.53 86.8101 76.29 86.8101C81.05 86.8101 85.43 86.0601 89.45 84.5701C93.46 83.0801 96.93 80.9401 99.86 78.1601C102.78 75.3801 105.06 72.0101 106.7 68.0601C106.92 67.5301 107.12 66.9801 107.31 66.4301V85.2601H120.72V60.9201H127.34L140.07 85.2601H156.15L140.66 59.5501ZM31.52 46.6501C30.8 47.5701 29.9 48.2401 28.81 48.6701C27.72 49.1001 26.5 49.3601 25.16 49.4401C23.81 49.5301 22.54 49.5701 21.33 49.5701H13.42V35.7301H22.19C23.39 35.7301 24.63 35.8201 25.89 35.9901C27.15 36.1601 28.27 36.4901 29.24 36.9801C30.21 37.4701 31.02 38.1701 31.65 39.0901C32.28 40.0101 32.6 41.2401 32.6 42.7901C32.6 44.4401 32.24 45.7301 31.52 46.6501ZM93.87 62.6901C92.98 65.0701 91.71 67.1301 90.04 68.8801C88.38 70.6301 86.39 71.9901 84.06 72.9701C81.74 73.9501 79.14 74.4301 76.28 74.4301C73.41 74.4301 70.82 73.9401 68.5 72.9701C66.18 72.0001 64.19 70.6301 62.52 68.8801C60.86 67.1301 59.58 65.0701 58.69 62.6901C57.8 60.3101 57.36 57.6901 57.36 54.8201C57.36 52.0101 57.8 49.4001 58.69 46.9901C59.58 44.5801 60.85 42.5101 62.52 40.7601C64.18 39.0101 66.17 37.6501 68.5 36.6701C70.82 35.7001 73.41 35.2101 76.28 35.2101C79.15 35.2101 81.74 35.7001 84.06 36.6701C86.38 37.6401 88.37 39.0101 90.04 40.7601C91.7 42.5101 92.98 44.5901 93.87 46.9901C94.76 49.4001 95.2 52.0101 95.2 54.8201C95.2 57.6901 94.76 60.3101 93.87 62.6901ZM138.81 46.6501C138.09 47.5701 137.19 48.2401 136.1 48.6701C135.01 49.1001 133.79 49.3601 132.45 49.4401C131.1 49.5301 129.83 49.5701 128.62 49.5701H120.71V35.7301H129.48C130.68 35.7301 131.92 35.8201 133.18 35.9901C134.44 36.1601 135.56 36.4901 136.53 36.9801C137.5 37.4701 138.31 38.1701 138.94 39.0901C139.57 40.0101 139.89 41.2401 139.89 42.7901C139.89 44.4401 139.53 45.7301 138.81 46.6501Z" fill="#4D4D4D"/>
</svg>
