<svg width="18" height="18" viewBox="0 0 18 18" fill="none" xmlns="http://www.w3.org/2000/svg">
    <path d="M17.8296 17.0207L13.1822 12.4477C14.3992 11.1255 15.1469 9.37682 15.1469 7.45262C15.1464 3.33639 11.7559 0 7.57318 0C3.39048 0 0 3.33639 0 7.45262C0 11.5688 3.39048 14.9052 7.57318 14.9052C9.38039 14.9052 11.0379 14.2802 12.3399 13.241L17.0053 17.832C17.2327 18.056 17.6017 18.056 17.829 17.832C17.8831 17.7792 17.9261 17.7162 17.9554 17.6465C17.9848 17.5769 18 17.5021 18 17.4265C18 17.3509 17.985 17.2761 17.9557 17.2064C17.9265 17.1367 17.8836 17.0736 17.8296 17.0207ZM7.57318 13.7586C4.03416 13.7586 1.16524 10.9353 1.16524 7.45262C1.16524 3.96991 4.03416 1.14663 7.57318 1.14663C11.1122 1.14663 13.9811 3.96991 13.9811 7.45262C13.9811 10.9353 11.1122 13.7586 7.57318 13.7586Z" fill="#3CB371"/>
</svg>
