<svg width="14" height="14" viewBox="0 0 14 14" fill="none" xmlns="http://www.w3.org/2000/svg">
<path d="M13.397 8.53418L12.1102 7.52793C12.1265 7.37275 12.1405 7.19135 12.1405 6.99943C12.1405 6.8075 12.1271 6.6261 12.1102 6.47093L13.3982 5.4641C13.6374 5.2751 13.7027 4.93968 13.5505 4.66028L12.2123 2.345C12.0694 2.08368 11.7561 1.9495 11.4382 2.06675L9.91979 2.67632C9.62871 2.46632 9.32361 2.289 9.00804 2.14725L8.77704 0.536676C8.73911 0.231 8.47311 0 8.15871 0H5.47539C5.16096 0 4.89556 0.231 4.85821 0.532L4.62664 2.14843C4.32096 2.2861 4.02056 2.4611 3.71664 2.6775L2.19414 2.06618C1.90886 1.95593 1.56761 2.07957 1.42586 2.33975L0.0859614 4.65793C-0.0721128 4.9251 -0.00678858 5.27218 0.237637 5.46585L1.52446 6.4721C1.50404 6.66868 1.49414 6.8396 1.49414 7.00003C1.49414 7.16045 1.50406 7.33135 1.52446 7.52853L0.236461 8.53535C-0.00271436 8.72493 -0.0674644 9.06035 0.0847856 9.33918L1.42296 11.6544C1.56589 11.9152 1.87621 12.0505 2.19704 11.9327L3.71546 11.3231C4.00596 11.5325 4.31104 11.7099 4.62664 11.8522L4.85764 13.4622C4.89554 13.769 5.16096 14 5.47596 14H8.15929C8.47371 14 8.73971 13.769 8.77704 13.468L9.00861 11.8522C9.31429 11.7139 9.61411 11.5395 9.91861 11.3225L11.4411 11.9338C11.514 11.9624 11.5915 11.977 11.6698 11.977C11.8961 11.977 12.1044 11.8533 12.2094 11.6608L13.5534 9.33332C13.7027 9.06032 13.6374 8.72493 13.397 8.53418ZM6.81704 9.33332C5.53021 9.33332 4.48371 8.28682 4.48371 7C4.48371 5.71318 5.53021 4.66668 6.81704 4.66668C8.10386 4.66668 9.15036 5.71318 9.15036 7C9.15036 8.28682 8.10386 9.33332 6.81704 9.33332Z" fill="#3CB371"/>
</svg>
