<svg width="67" height="67" viewBox="0 0 67 67" fill="none" xmlns="http://www.w3.org/2000/svg">
    <path d="M49.9166 23.0529L49.9136 23.0501L34.0555 28.822C33.7171 28.9452 33.4228 29.1661 33.2098 29.4566C32.9969 29.7471 32.8748 30.0942 32.8591 30.4541C32.8434 30.8139 32.9348 31.1703 33.1216 31.4783C33.3085 31.7862 33.5824 32.0319 33.9088 32.1841L49.7047 39.5499C51.821 34.2685 51.8961 28.387 49.9166 23.0529ZM48.8131 20.5431C46.1899 15.4259 41.7476 11.4748 36.3593 9.46632L29.4509 24.2816C29.2987 24.6081 29.2467 24.9723 29.3015 25.3283C29.3563 25.6843 29.5155 26.0161 29.7588 26.2817C30.0022 26.5472 30.3188 26.7347 30.6686 26.8204C31.0185 26.906 31.3859 26.886 31.7244 26.7629L48.8131 20.5431ZM48.5513 42.0262L32.7538 34.6611C32.4273 34.509 32.0631 34.457 31.7071 34.5118C31.3511 34.5666 31.0193 34.7258 30.7537 34.9691C30.4882 35.2124 30.3007 35.529 30.2151 35.8789C30.1294 36.2288 30.1494 36.5962 30.2725 36.9347L36.0431 52.7893L36.0525 52.7937C41.4111 50.8808 45.8664 47.0427 48.5513 42.0262ZM33.4197 53.5698L27.1961 36.4707C27.0726 36.1326 26.8516 35.8386 26.561 35.6259C26.2705 35.4133 25.9235 35.2915 25.5638 35.276C25.204 35.2605 24.8478 35.3519 24.54 35.5388C24.2323 35.7256 23.9868 35.9995 23.8346 36.3258L16.907 51.179C21.9136 54.0255 27.8112 54.8788 33.4197 53.5698Z" fill="var(--primary-color)"/>
    <path d="M40.7865 4.27933C40.3487 4.07528 39.8478 4.05345 39.394 4.21864C38.9401 4.38383 38.5704 4.72251 38.3663 5.16022L37.5313 6.95085C40.834 8.22497 43.8396 10.1644 46.3614 12.6488C48.8832 15.1331 50.8674 18.1094 52.1907 21.3927C53.5141 24.676 54.1484 28.1963 54.0543 31.7351C53.9601 35.2738 53.1396 38.7554 51.6435 41.9637C50.1474 45.172 48.0078 48.0386 45.3575 50.3853C42.7072 52.7321 39.6027 54.509 36.2369 55.6057C32.8711 56.7025 29.3158 57.0956 25.7917 56.7607C22.2676 56.4258 18.8499 55.37 15.7509 53.659L14.9181 55.4449C14.7141 55.8827 14.6922 56.3836 14.8574 56.8374C15.0226 57.2913 15.3613 57.661 15.799 57.8652C22.9049 61.1787 31.0361 61.5337 38.4038 58.8521C45.7715 56.1705 51.7721 50.6719 55.0857 43.566C58.3992 36.4601 58.7542 28.3289 56.0726 20.9612C53.391 13.5935 47.8924 7.59288 40.7865 4.27933Z" fill="var(--primary-color)"/>
</svg>
