<svg width="73" height="73" viewBox="0 0 73 73" fill="none" xmlns="http://www.w3.org/2000/svg">
    <path d="M52.9065 46.5248L52.9078 46.5209L40.9748 34.5879C40.72 34.3333 40.3955 34.1599 40.0422 34.0896C39.6889 34.0194 39.3227 34.0555 38.99 34.1934C38.6572 34.3312 38.3728 34.5646 38.1726 34.8641C37.9725 35.1636 37.8657 35.5157 37.8656 35.8759L37.8656 53.3046C43.5465 52.9907 48.9087 50.5731 52.9065 46.5248ZM54.7148 44.464C58.244 39.924 59.9475 34.2281 59.4906 28.4958L43.1437 28.4958C42.7835 28.4959 42.4314 28.6027 42.1319 28.8029C41.8324 29.003 41.599 29.2874 41.4612 29.6202C41.3233 29.953 41.2872 30.3191 41.3575 30.6724C41.4277 31.0257 41.6011 31.3502 41.8557 31.605L54.7148 44.464ZM35.1338 53.3059L35.1325 35.8759C35.1325 35.5157 35.0256 35.1636 34.8255 34.8641C34.6254 34.5646 34.3409 34.3312 34.0082 34.1934C33.6754 34.0555 33.3092 34.0194 32.9559 34.0896C32.6027 34.1599 32.2781 34.3333 32.0234 34.5879L20.0929 46.5183L20.0929 46.5286C24.0912 50.5768 29.4526 52.9926 35.1338 53.3059ZM18.2769 44.4705L31.1437 31.6037C31.398 31.3488 31.571 31.0243 31.6409 30.6711C31.7109 30.3179 31.6746 29.9519 31.5366 29.6193C31.3987 29.2868 31.1652 29.0026 30.8658 28.8026C30.5664 28.6026 30.2145 28.4959 29.8544 28.4958L13.4651 28.4945C13.0012 34.2351 14.7203 39.9407 18.2769 44.4705Z" fill="var(--primary-color)"/>
    <path d="M66.0626 30.3169C66.0626 29.8339 65.8707 29.3707 65.5292 29.0292C65.1876 28.6877 64.7245 28.4958 64.2415 28.4957L62.2657 28.4957C62.5068 32.0275 62.0193 35.5711 60.8334 38.9066C59.6476 42.242 57.7887 45.2981 55.3723 47.8851C52.9559 50.4721 50.0335 52.5347 46.7865 53.9449C43.5395 55.3551 40.0374 56.0828 36.4974 56.0828C32.9574 56.0828 29.4552 55.3551 26.2082 53.9449C22.9612 52.5347 20.0388 50.4721 17.6224 47.8851C15.206 45.2981 13.3471 42.242 12.1613 38.9066C10.9755 35.5711 10.4879 32.0275 10.729 28.4957L8.75841 28.4957C8.27543 28.4958 7.81225 28.6877 7.47073 29.0292C7.1292 29.3707 6.9373 29.8339 6.93723 30.3169C6.93723 38.1574 10.0519 45.6768 15.5959 51.2209C21.14 56.765 28.6594 59.8796 36.4999 59.8796C44.3405 59.8796 51.8598 56.765 57.4039 51.2209C62.948 45.6768 66.0626 38.1574 66.0626 30.3169Z" fill="var(--primary-color)"/>
</svg>
