<svg width="20" height="20" viewBox="0 0 20 20" fill="none" xmlns="http://www.w3.org/2000/svg">
    <path d="M18.6805 7.79438C18.6088 7.57369 18.4774 7.37714 18.301 7.22647C18.1245 7.0758 17.9097 6.97687 17.6805 6.94062L13.1887 6.25125L11.1755 1.98C11.0774 1.76259 10.9187 1.57809 10.7184 1.44861C10.5181 1.31913 10.2847 1.25017 10.0462 1.25C9.55992 1.25 9.1268 1.53 8.9168 1.97875L6.90305 6.25187L2.41117 6.94125C2.18204 6.9777 1.96742 7.0767 1.79097 7.22734C1.61452 7.37798 1.48309 7.57442 1.41117 7.795C1.33336 8.02282 1.32003 8.26771 1.37264 8.50264C1.42525 8.73756 1.54175 8.95337 1.7093 9.12625L4.97804 12.49L4.20554 17.2475C4.12429 17.7488 4.3268 18.2375 4.73492 18.5244C4.92355 18.6575 5.14594 18.7346 5.37648 18.7469C5.60703 18.7592 5.83635 18.7061 6.03804 18.5938L10.0355 16.3638L14.0549 18.5938C14.2563 18.7068 14.4856 18.7603 14.7162 18.748C14.9468 18.7357 15.1692 18.6581 15.3574 18.5244C15.5575 18.3836 15.7135 18.189 15.8072 17.963C15.9009 17.7371 15.9285 17.4892 15.8868 17.2481L15.1143 12.4906L18.383 9.12688C18.5506 8.954 18.6671 8.73818 18.7197 8.50326C18.7723 8.26834 18.759 8.02345 18.6812 7.79562L18.6805 7.79438Z" fill="#FFCB2B"/>
</svg>
