<svg viewBox="0 0 106 106" fill="none" xmlns="http://www.w3.org/2000/svg">
<path d="M53 0C82.2242 0 106 23.7758 106 53C106 82.2242 82.2242 106 53 106C23.7758 106 2.74181e-06 82.2242 2.74181e-06 53C2.74181e-06 23.7758 23.7758 0 53 0ZM78.697 61.0303C83.1249 61.0303 86.7273 57.4279 86.7273 53C86.7273 48.5721 83.1249 44.9697 78.697 44.9697C74.2691 44.9697 70.6667 48.5721 70.6667 53C70.6667 57.4279 74.2691 61.0303 78.697 61.0303ZM53 61.0303C57.4279 61.0303 61.0303 57.4279 61.0303 53C61.0303 48.5721 57.4279 44.9697 53 44.9697C48.5721 44.9697 44.9697 48.5721 44.9697 53C44.9697 57.4279 48.5721 61.0303 53 61.0303ZM27.303 61.0303C31.7309 61.0303 35.3333 57.4279 35.3333 53C35.3333 48.5721 31.7309 44.9697 27.303 44.9697C22.8751 44.9697 19.2727 48.5721 19.2727 53C19.2727 57.4279 22.8751 61.0303 27.303 61.0303Z" fill="var(--primary-color)"/>
</svg>
