<svg width="14" height="10" viewBox="0 0 14 10" fill="none" xmlns="http://www.w3.org/2000/svg">
<path d="M13.9231 4.27306C13.7981 4.09834 10.819 0 7.0275 0C3.23568 0 0.201867 4.09834 0.0769056 4.27306C0.0269007 4.34261 0 4.42611 0 4.51177C0 4.59743 0.0269007 4.68093 0.0769056 4.75048C0.201867 4.92521 3.23568 9.02352 7.0275 9.02352C10.819 9.02352 13.7981 4.92521 13.9231 4.75046C13.9731 4.68091 14 4.59742 14 4.51176C14 4.4261 13.9731 4.34261 13.9231 4.27306ZM7.0275 7.38287C5.44454 7.38287 4.10169 6.0947 4.10169 4.51175C4.10169 2.92879 5.44454 1.64062 7.0275 1.64062C8.61045 1.64062 9.89862 2.92879 9.89862 4.51175C9.89862 6.0947 8.61045 7.38287 7.0275 7.38287Z" fill="#3CB371"/>
<path d="M7.02747 3.28125C6.34879 3.28125 5.74231 3.83332 5.74231 4.51172C5.74231 5.19039 6.34879 5.74219 7.02747 5.74219C7.70586 5.74219 8.25794 5.19039 8.25794 4.51172C8.25794 3.83332 7.70586 3.28125 7.02747 3.28125Z" fill="#3CB371"/>
</svg>
